<mxfile host="app.diagrams.net" modified="2020-12-15T03:50:30.594Z" agent="5.0 (Windows NT 10.0; Win64; x64) AppleWebKit/537.36 (KHTML, like Gecko) Chrome/87.0.4280.88 Safari/537.36 Edg/87.0.664.60" etag="m6mB9JUllI0MICOSr-IE" version="14.0.1" type="github">
  <diagram id="6-2_JNBw7a3tPVagqGcq" name="Page-1">
    <mxGraphModel dx="981" dy="526" grid="1" gridSize="10" guides="1" tooltips="1" connect="1" arrows="1" fold="1" page="1" pageScale="1" pageWidth="827" pageHeight="1169" math="0" shadow="0">
      <root>
        <mxCell id="0" />
        <mxCell id="1" parent="0" />
        <mxCell id="s125PIekys_FiBV0F-SK-5" value="" style="edgeStyle=orthogonalEdgeStyle;rounded=0;orthogonalLoop=1;jettySize=auto;html=1;entryX=0.5;entryY=1;entryDx=0;entryDy=0;align=left;verticalAlign=middle;" edge="1" parent="1" source="s125PIekys_FiBV0F-SK-1" target="s125PIekys_FiBV0F-SK-2">
          <mxGeometry relative="1" as="geometry" />
        </mxCell>
        <mxCell id="s125PIekys_FiBV0F-SK-6" value="" style="edgeStyle=orthogonalEdgeStyle;rounded=0;orthogonalLoop=1;jettySize=auto;html=1;verticalAlign=middle;" edge="1" parent="1" source="s125PIekys_FiBV0F-SK-1" target="s125PIekys_FiBV0F-SK-2">
          <mxGeometry relative="1" as="geometry" />
        </mxCell>
        <mxCell id="s125PIekys_FiBV0F-SK-1" value="x&lt;sub&gt;t&lt;/sub&gt;" style="ellipse;whiteSpace=wrap;html=1;aspect=fixed;verticalAlign=middle;" vertex="1" parent="1">
          <mxGeometry x="315" y="460" width="30" height="30" as="geometry" />
        </mxCell>
        <mxCell id="s125PIekys_FiBV0F-SK-8" style="edgeStyle=orthogonalEdgeStyle;rounded=0;orthogonalLoop=1;jettySize=auto;html=1;entryX=0.5;entryY=1;entryDx=0;entryDy=0;" edge="1" parent="1" source="s125PIekys_FiBV0F-SK-2" target="s125PIekys_FiBV0F-SK-7">
          <mxGeometry relative="1" as="geometry" />
        </mxCell>
        <mxCell id="s125PIekys_FiBV0F-SK-2" value="MLP-INPUT" style="rounded=1;whiteSpace=wrap;html=1;" vertex="1" parent="1">
          <mxGeometry x="270" y="370" width="120" height="60" as="geometry" />
        </mxCell>
        <mxCell id="s125PIekys_FiBV0F-SK-35" value="h&lt;sub&gt;t&lt;/sub&gt;" style="edgeStyle=orthogonalEdgeStyle;rounded=0;orthogonalLoop=1;jettySize=auto;html=1;exitX=1;exitY=0.25;exitDx=0;exitDy=0;entryX=0;entryY=0.25;entryDx=0;entryDy=0;" edge="1" parent="1" source="s125PIekys_FiBV0F-SK-7" target="s125PIekys_FiBV0F-SK-21">
          <mxGeometry relative="1" as="geometry" />
        </mxCell>
        <mxCell id="s125PIekys_FiBV0F-SK-37" value="c&lt;sub&gt;t&lt;/sub&gt;" style="edgeStyle=orthogonalEdgeStyle;rounded=0;orthogonalLoop=1;jettySize=auto;html=1;exitX=1;exitY=0.75;exitDx=0;exitDy=0;entryX=0;entryY=0.75;entryDx=0;entryDy=0;" edge="1" parent="1" source="s125PIekys_FiBV0F-SK-7" target="s125PIekys_FiBV0F-SK-21">
          <mxGeometry relative="1" as="geometry" />
        </mxCell>
        <mxCell id="s125PIekys_FiBV0F-SK-7" value="LSTM" style="rounded=1;whiteSpace=wrap;html=1;" vertex="1" parent="1">
          <mxGeometry x="270" y="280" width="120" height="60" as="geometry" />
        </mxCell>
        <mxCell id="s125PIekys_FiBV0F-SK-15" value="" style="edgeStyle=orthogonalEdgeStyle;rounded=0;orthogonalLoop=1;jettySize=auto;html=1;entryX=0.5;entryY=1;entryDx=0;entryDy=0;align=left;verticalAlign=middle;" edge="1" parent="1" source="s125PIekys_FiBV0F-SK-17" target="s125PIekys_FiBV0F-SK-19">
          <mxGeometry relative="1" as="geometry" />
        </mxCell>
        <mxCell id="s125PIekys_FiBV0F-SK-16" value="" style="edgeStyle=orthogonalEdgeStyle;rounded=0;orthogonalLoop=1;jettySize=auto;html=1;verticalAlign=middle;" edge="1" parent="1" source="s125PIekys_FiBV0F-SK-17" target="s125PIekys_FiBV0F-SK-19">
          <mxGeometry relative="1" as="geometry" />
        </mxCell>
        <mxCell id="s125PIekys_FiBV0F-SK-17" value="x&lt;sub&gt;t+1&lt;/sub&gt;" style="ellipse;whiteSpace=wrap;html=1;aspect=fixed;verticalAlign=middle;" vertex="1" parent="1">
          <mxGeometry x="485" y="460" width="30" height="30" as="geometry" />
        </mxCell>
        <mxCell id="s125PIekys_FiBV0F-SK-18" style="edgeStyle=orthogonalEdgeStyle;rounded=0;orthogonalLoop=1;jettySize=auto;html=1;entryX=0.5;entryY=1;entryDx=0;entryDy=0;" edge="1" parent="1" source="s125PIekys_FiBV0F-SK-19" target="s125PIekys_FiBV0F-SK-21">
          <mxGeometry relative="1" as="geometry" />
        </mxCell>
        <mxCell id="s125PIekys_FiBV0F-SK-19" value="MLP-INPUT" style="rounded=1;whiteSpace=wrap;html=1;" vertex="1" parent="1">
          <mxGeometry x="440" y="370" width="120" height="60" as="geometry" />
        </mxCell>
        <mxCell id="s125PIekys_FiBV0F-SK-21" value="LSTM" style="rounded=1;whiteSpace=wrap;html=1;" vertex="1" parent="1">
          <mxGeometry x="440" y="280" width="120" height="60" as="geometry" />
        </mxCell>
        <mxCell id="s125PIekys_FiBV0F-SK-23" value="" style="edgeStyle=orthogonalEdgeStyle;rounded=0;orthogonalLoop=1;jettySize=auto;html=1;entryX=0.5;entryY=1;entryDx=0;entryDy=0;align=left;verticalAlign=middle;" edge="1" parent="1" source="s125PIekys_FiBV0F-SK-25" target="s125PIekys_FiBV0F-SK-27">
          <mxGeometry relative="1" as="geometry" />
        </mxCell>
        <mxCell id="s125PIekys_FiBV0F-SK-24" value="" style="edgeStyle=orthogonalEdgeStyle;rounded=0;orthogonalLoop=1;jettySize=auto;html=1;verticalAlign=middle;" edge="1" parent="1" source="s125PIekys_FiBV0F-SK-25" target="s125PIekys_FiBV0F-SK-27">
          <mxGeometry relative="1" as="geometry" />
        </mxCell>
        <mxCell id="s125PIekys_FiBV0F-SK-25" value="x&lt;sub&gt;t-1&lt;/sub&gt;" style="ellipse;whiteSpace=wrap;html=1;aspect=fixed;verticalAlign=middle;" vertex="1" parent="1">
          <mxGeometry x="145" y="460" width="30" height="30" as="geometry" />
        </mxCell>
        <mxCell id="s125PIekys_FiBV0F-SK-26" style="edgeStyle=orthogonalEdgeStyle;rounded=0;orthogonalLoop=1;jettySize=auto;html=1;entryX=0.5;entryY=1;entryDx=0;entryDy=0;" edge="1" parent="1" source="s125PIekys_FiBV0F-SK-27" target="s125PIekys_FiBV0F-SK-29">
          <mxGeometry relative="1" as="geometry" />
        </mxCell>
        <mxCell id="s125PIekys_FiBV0F-SK-27" value="MLP-INPUT" style="rounded=1;whiteSpace=wrap;html=1;" vertex="1" parent="1">
          <mxGeometry x="100" y="370" width="120" height="60" as="geometry" />
        </mxCell>
        <mxCell id="s125PIekys_FiBV0F-SK-31" value="h&lt;sub&gt;t-1&lt;/sub&gt;" style="edgeStyle=orthogonalEdgeStyle;rounded=0;orthogonalLoop=1;jettySize=auto;html=1;exitX=1;exitY=0.25;exitDx=0;exitDy=0;entryX=0;entryY=0.25;entryDx=0;entryDy=0;" edge="1" parent="1">
          <mxGeometry relative="1" as="geometry">
            <mxPoint x="220" y="295" as="sourcePoint" />
            <mxPoint x="270" y="295" as="targetPoint" />
          </mxGeometry>
        </mxCell>
        <mxCell id="s125PIekys_FiBV0F-SK-32" value="c&lt;sub&gt;t-1&lt;/sub&gt;" style="edgeStyle=orthogonalEdgeStyle;rounded=0;orthogonalLoop=1;jettySize=auto;html=1;exitX=1;exitY=0.75;exitDx=0;exitDy=0;entryX=0;entryY=0.75;entryDx=0;entryDy=0;" edge="1" parent="1" source="s125PIekys_FiBV0F-SK-29" target="s125PIekys_FiBV0F-SK-7">
          <mxGeometry relative="1" as="geometry" />
        </mxCell>
        <mxCell id="s125PIekys_FiBV0F-SK-29" value="LSTM" style="rounded=1;whiteSpace=wrap;html=1;" vertex="1" parent="1">
          <mxGeometry x="100" y="280" width="120" height="60" as="geometry" />
        </mxCell>
        <mxCell id="s125PIekys_FiBV0F-SK-44" value="z&lt;sub&gt;t&lt;br&gt;&lt;/sub&gt;" style="edgeStyle=orthogonalEdgeStyle;rounded=0;orthogonalLoop=1;jettySize=auto;html=1;verticalAlign=bottom;align=left;entryX=0.5;entryY=1;entryDx=0;entryDy=0;horizontal=1;" edge="1" parent="1">
          <mxGeometry relative="1" as="geometry">
            <mxPoint x="291" y="229.9999999999999" as="targetPoint" />
            <mxPoint x="331.0344827586207" y="280" as="sourcePoint" />
            <Array as="points">
              <mxPoint x="331" y="250" />
              <mxPoint x="291" y="250" />
            </Array>
          </mxGeometry>
        </mxCell>
        <mxCell id="s125PIekys_FiBV0F-SK-45" style="edgeStyle=orthogonalEdgeStyle;rounded=0;orthogonalLoop=1;jettySize=auto;html=1;entryX=0.5;entryY=1;entryDx=0;entryDy=0;align=left;" edge="1" parent="1" target="s125PIekys_FiBV0F-SK-47">
          <mxGeometry relative="1" as="geometry">
            <mxPoint x="330.0344827586207" y="280" as="sourcePoint" />
            <Array as="points">
              <mxPoint x="330" y="250" />
              <mxPoint x="370" y="250" />
            </Array>
          </mxGeometry>
        </mxCell>
        <mxCell id="s125PIekys_FiBV0F-SK-46" value="MLP-ACTION" style="rounded=1;whiteSpace=wrap;html=1;" vertex="1" parent="1">
          <mxGeometry x="260" y="150" width="60" height="80" as="geometry" />
        </mxCell>
        <mxCell id="s125PIekys_FiBV0F-SK-47" value="MLP-VALUE" style="rounded=1;whiteSpace=wrap;html=1;" vertex="1" parent="1">
          <mxGeometry x="340" y="150" width="60" height="80" as="geometry" />
        </mxCell>
        <mxCell id="s125PIekys_FiBV0F-SK-48" value="z&lt;sub&gt;t+1&lt;br&gt;&lt;/sub&gt;" style="edgeStyle=orthogonalEdgeStyle;rounded=0;orthogonalLoop=1;jettySize=auto;html=1;verticalAlign=bottom;align=left;entryX=0.5;entryY=1;entryDx=0;entryDy=0;horizontal=1;" edge="1" parent="1">
          <mxGeometry relative="1" as="geometry">
            <mxPoint x="461" y="229.9999999999999" as="targetPoint" />
            <mxPoint x="501.0344827586207" y="280" as="sourcePoint" />
            <Array as="points">
              <mxPoint x="501" y="250" />
              <mxPoint x="461" y="250" />
            </Array>
          </mxGeometry>
        </mxCell>
        <mxCell id="s125PIekys_FiBV0F-SK-49" style="edgeStyle=orthogonalEdgeStyle;rounded=0;orthogonalLoop=1;jettySize=auto;html=1;entryX=0.5;entryY=1;entryDx=0;entryDy=0;align=left;" edge="1" parent="1" target="s125PIekys_FiBV0F-SK-51">
          <mxGeometry relative="1" as="geometry">
            <mxPoint x="500.0344827586207" y="280" as="sourcePoint" />
            <Array as="points">
              <mxPoint x="500" y="250" />
              <mxPoint x="540" y="250" />
            </Array>
          </mxGeometry>
        </mxCell>
        <mxCell id="s125PIekys_FiBV0F-SK-50" value="MLP-ACTION" style="rounded=1;whiteSpace=wrap;html=1;" vertex="1" parent="1">
          <mxGeometry x="430" y="150" width="60" height="80" as="geometry" />
        </mxCell>
        <mxCell id="s125PIekys_FiBV0F-SK-51" value="MLP-VALUE" style="rounded=1;whiteSpace=wrap;html=1;" vertex="1" parent="1">
          <mxGeometry x="510" y="150" width="60" height="80" as="geometry" />
        </mxCell>
        <mxCell id="s125PIekys_FiBV0F-SK-52" value="z&lt;sub&gt;t-1&lt;br&gt;&lt;/sub&gt;" style="edgeStyle=orthogonalEdgeStyle;rounded=0;orthogonalLoop=1;jettySize=auto;html=1;verticalAlign=bottom;align=left;entryX=0.5;entryY=1;entryDx=0;entryDy=0;horizontal=1;" edge="1" parent="1">
          <mxGeometry relative="1" as="geometry">
            <mxPoint x="121" y="229.9999999999999" as="targetPoint" />
            <mxPoint x="161.0344827586207" y="280" as="sourcePoint" />
            <Array as="points">
              <mxPoint x="161" y="250" />
              <mxPoint x="121" y="250" />
            </Array>
          </mxGeometry>
        </mxCell>
        <mxCell id="s125PIekys_FiBV0F-SK-53" style="edgeStyle=orthogonalEdgeStyle;rounded=0;orthogonalLoop=1;jettySize=auto;html=1;entryX=0.5;entryY=1;entryDx=0;entryDy=0;align=left;" edge="1" parent="1" target="s125PIekys_FiBV0F-SK-55">
          <mxGeometry relative="1" as="geometry">
            <mxPoint x="160.0344827586207" y="280" as="sourcePoint" />
            <Array as="points">
              <mxPoint x="160" y="250" />
              <mxPoint x="200" y="250" />
            </Array>
          </mxGeometry>
        </mxCell>
        <mxCell id="s125PIekys_FiBV0F-SK-56" style="edgeStyle=orthogonalEdgeStyle;rounded=0;orthogonalLoop=1;jettySize=auto;html=1;align=left;" edge="1" parent="1" source="s125PIekys_FiBV0F-SK-54">
          <mxGeometry relative="1" as="geometry">
            <mxPoint x="120" y="130" as="targetPoint" />
          </mxGeometry>
        </mxCell>
        <mxCell id="s125PIekys_FiBV0F-SK-54" value="MLP-ACTION" style="rounded=1;whiteSpace=wrap;html=1;" vertex="1" parent="1">
          <mxGeometry x="90" y="150" width="60" height="80" as="geometry" />
        </mxCell>
        <mxCell id="s125PIekys_FiBV0F-SK-55" value="MLP-VALUE" style="rounded=1;whiteSpace=wrap;html=1;" vertex="1" parent="1">
          <mxGeometry x="170" y="150" width="60" height="80" as="geometry" />
        </mxCell>
        <mxCell id="s125PIekys_FiBV0F-SK-58" value="&lt;span style=&quot;font-size: 10px&quot;&gt;a&lt;sub&gt;t-1&lt;/sub&gt;&lt;/span&gt;" style="ellipse;whiteSpace=wrap;html=1;aspect=fixed;verticalAlign=middle;" vertex="1" parent="1">
          <mxGeometry x="105" y="100" width="30" height="30" as="geometry" />
        </mxCell>
        <mxCell id="s125PIekys_FiBV0F-SK-59" style="edgeStyle=orthogonalEdgeStyle;rounded=0;orthogonalLoop=1;jettySize=auto;html=1;align=left;" edge="1" parent="1">
          <mxGeometry relative="1" as="geometry">
            <mxPoint x="200" y="130" as="targetPoint" />
            <mxPoint x="200.0344827586207" y="150" as="sourcePoint" />
          </mxGeometry>
        </mxCell>
        <mxCell id="s125PIekys_FiBV0F-SK-60" value="&lt;span style=&quot;font-size: 10px&quot;&gt;v&lt;sub&gt;t-1&lt;/sub&gt;&lt;/span&gt;" style="ellipse;whiteSpace=wrap;html=1;aspect=fixed;verticalAlign=middle;" vertex="1" parent="1">
          <mxGeometry x="185" y="100" width="30" height="30" as="geometry" />
        </mxCell>
        <mxCell id="s125PIekys_FiBV0F-SK-61" style="edgeStyle=orthogonalEdgeStyle;rounded=0;orthogonalLoop=1;jettySize=auto;html=1;align=left;" edge="1" parent="1">
          <mxGeometry relative="1" as="geometry">
            <mxPoint x="290" y="130" as="targetPoint" />
            <mxPoint x="290.0344827586207" y="150" as="sourcePoint" />
          </mxGeometry>
        </mxCell>
        <mxCell id="s125PIekys_FiBV0F-SK-62" value="&lt;span style=&quot;font-size: 10px&quot;&gt;a&lt;sub&gt;t&lt;/sub&gt;&lt;/span&gt;" style="ellipse;whiteSpace=wrap;html=1;aspect=fixed;verticalAlign=middle;" vertex="1" parent="1">
          <mxGeometry x="275" y="100" width="30" height="30" as="geometry" />
        </mxCell>
        <mxCell id="s125PIekys_FiBV0F-SK-63" style="edgeStyle=orthogonalEdgeStyle;rounded=0;orthogonalLoop=1;jettySize=auto;html=1;align=left;" edge="1" parent="1">
          <mxGeometry relative="1" as="geometry">
            <mxPoint x="370" y="130" as="targetPoint" />
            <mxPoint x="370.0344827586207" y="150" as="sourcePoint" />
          </mxGeometry>
        </mxCell>
        <mxCell id="s125PIekys_FiBV0F-SK-64" value="&lt;span style=&quot;font-size: 10px&quot;&gt;v&lt;sub&gt;t&lt;/sub&gt;&lt;/span&gt;" style="ellipse;whiteSpace=wrap;html=1;aspect=fixed;verticalAlign=middle;" vertex="1" parent="1">
          <mxGeometry x="355" y="100" width="30" height="30" as="geometry" />
        </mxCell>
        <mxCell id="s125PIekys_FiBV0F-SK-65" style="edgeStyle=orthogonalEdgeStyle;rounded=0;orthogonalLoop=1;jettySize=auto;html=1;align=left;" edge="1" parent="1">
          <mxGeometry relative="1" as="geometry">
            <mxPoint x="460" y="130" as="targetPoint" />
            <mxPoint x="460.0344827586207" y="150" as="sourcePoint" />
          </mxGeometry>
        </mxCell>
        <mxCell id="s125PIekys_FiBV0F-SK-66" value="&lt;span style=&quot;font-size: 10px&quot;&gt;a&lt;sub&gt;t+1&lt;/sub&gt;&lt;/span&gt;" style="ellipse;whiteSpace=wrap;html=1;aspect=fixed;verticalAlign=middle;" vertex="1" parent="1">
          <mxGeometry x="445" y="100" width="30" height="30" as="geometry" />
        </mxCell>
        <mxCell id="s125PIekys_FiBV0F-SK-67" style="edgeStyle=orthogonalEdgeStyle;rounded=0;orthogonalLoop=1;jettySize=auto;html=1;align=left;" edge="1" parent="1">
          <mxGeometry relative="1" as="geometry">
            <mxPoint x="540" y="130" as="targetPoint" />
            <mxPoint x="540.0344827586207" y="150" as="sourcePoint" />
          </mxGeometry>
        </mxCell>
        <mxCell id="s125PIekys_FiBV0F-SK-68" value="&lt;span style=&quot;font-size: 10px&quot;&gt;v&lt;sub&gt;t+1&lt;/sub&gt;&lt;/span&gt;" style="ellipse;whiteSpace=wrap;html=1;aspect=fixed;verticalAlign=middle;" vertex="1" parent="1">
          <mxGeometry x="525" y="100" width="30" height="30" as="geometry" />
        </mxCell>
      </root>
    </mxGraphModel>
  </diagram>
</mxfile>
